Coordinates
version=1
nRows=24
nColumns=38
inDegrees=no

Units are S.I. units (second, meters, Newtons, ...)
If the header above contains a line with 'inDegrees', this indicates whether rotational values are in degrees (yes) or radians (no).

endheader
time	pelvis_tilt	pelvis_list	pelvis_rotation	pelvis_tx	pelvis_ty	pelvis_tz	hip_flexion_r	hip_adduction_r	hip_rotation_r	knee_angle_r	ankle_angle_r	subtalar_angle_r	mtp_angle_r	hip_flexion_l	hip_adduction_l	hip_rotation_l	knee_angle_l	ankle_angle_l	subtalar_angle_l	mtp_angle_l	lumbar_extension	lumbar_bending	lumbar_rotation	arm_flex_r	arm_add_r	arm_rot_r	elbow_flex_r	pro_sup_r	wrist_flex_r	wrist_dev_r	arm_flex_l	arm_add_l	arm_rot_l	elbow_flex_l	pro_sup_l	wrist_flex_l	wrist_dev_l
0.63	3.075	1.19099	-1.35471	0.742342	0.0915034	0.953995	0.0570295	-0.0566404	-0.160496	1.11193	-0.268465	0	0	-0.386329	-0.0480774	-0.137036	0.233652	-0.231904	0	0	-0.336738	0.12027	0.105589	-0.0816353	-0.810235	0.0455833	1.56957	0.453841	0	0	0.661775	-0.53629	0.826003	1.09134	0.634475	0	0
0.64	3.07594	1.19126	-1.35037	0.741442	0.10078	0.953718	0.0705829	-0.0574488	-0.16473	1.0819	-0.25929	0	0	-0.399802	-0.0498314	-0.134947	0.227133	-0.228389	0	0	-0.336339	0.121397	0.100657	-0.0818061	-0.810868	0.0438354	1.57111	0.4524	0	0	0.663898	-0.537075	0.82668	1.09324	0.634042	0	0
0.65	3.07783	1.1915	-1.348	0.740733	0.110084	0.953339	0.0827338	-0.0594073	-0.16819	1.04985	-0.253196	0	0	-0.414022	-0.0512061	-0.132348	0.220838	-0.22428	0	0	-0.336364	0.121734	0.0968881	-0.0821937	-0.811486	0.0418748	1.57279	0.451482	0	0	0.666456	-0.538077	0.828086	1.09534	0.633975	0	0
0.66	3.0798	1.19197	-1.34694	0.740191	0.119407	0.952875	0.0939537	-0.0619859	-0.171645	1.01656	-0.24715	0	0	-0.428362	-0.0521582	-0.130348	0.214228	-0.22005	0	0	-0.336362	0.121639	0.0945518	-0.0827482	-0.811911	0.039539	1.57423	0.450413	0	0	0.668878	-0.538575	0.829274	1.09714	0.634388	0	0
0.67	3.08249	1.19241	-1.34769	0.739778	0.128724	0.952355	0.104044	-0.0653261	-0.175798	0.98239	-0.239741	0	0	-0.443268	-0.0523497	-0.128624	0.2064	-0.216429	0	0	-0.336468	0.121015	0.0932603	-0.0828801	-0.812241	0.0374372	1.57516	0.44892	0	0	0.671231	-0.538553	0.830179	1.09817	0.634884	0	0
0.68	3.08554	1.1936	-1.35005	0.739499	0.138086	0.951661	0.114052	-0.0689744	-0.180188	0.947385	-0.231664	0	0	-0.457045	-0.0517823	-0.127985	0.199731	-0.213638	0	0	-0.335823	0.119748	0.092932	-0.0826758	-0.813009	0.0364264	1.576	0.448639	0	0	0.673267	-0.538455	0.830928	1.09888	0.634525	0	0
0.69	3.08838	1.19609	-1.35339	0.739396	0.147541	0.950745	0.124279	-0.0723713	-0.184984	0.911219	-0.221826	0	0	-0.469158	-0.0505804	-0.127988	0.193475	-0.210709	0	0	-0.33393	0.118009	0.0935271	-0.0824575	-0.813626	0.0356907	1.57654	0.448979	0	0	0.674748	-0.538455	0.831363	1.09955	0.63385	0	0
0.7	3.09165	1.20017	-1.35826	0.739485	0.157081	0.949595	0.135069	-0.0758335	-0.189855	0.872519	-0.211547	0	0	-0.479404	-0.0489039	-0.127599	0.188294	-0.207356	0	0	-0.330548	0.115497	0.094886	-0.0821228	-0.813826	0.0351792	1.57687	0.449236	0	0	0.675673	-0.538799	0.831549	1.10044	0.63342	0	0
0.71	3.09542	1.20547	-1.36437	0.739706	0.166717	0.948235	0.145851	-0.0793612	-0.19549	0.831146	-0.198543	0	0	-0.487857	-0.0466587	-0.127254	0.184721	-0.202835	0	0	-0.325838	0.112369	0.0965874	-0.0815469	-0.813505	0.0349267	1.57695	0.449814	0	0	0.676123	-0.539406	0.831585	1.10113	0.633338	0	0
0.72	3.09895	1.21132	-1.371	0.739933	0.176393	0.946695	0.156093	-0.0823711	-0.202776	0.788426	-0.181062	0	0	-0.495212	-0.0439805	-0.128404	0.182107	-0.19648	0	0	-0.32048	0.109455	0.098827	-0.0807374	-0.813405	0.0348478	1.57706	0.451122	0	0	0.676078	-0.539619	0.8312	1.10132	0.633757	0	0
0.73	3.10205	1.21725	-1.37768	0.740178	0.186131	0.945087	0.164875	-0.0846451	-0.211824	0.744713	-0.162173	0	0	-0.502094	-0.0413783	-0.13098	0.180343	-0.190313	0	0	-0.31513	0.106966	0.101554	-0.0801125	-0.813554	0.034692	1.57752	0.452674	0	0	0.675351	-0.539452	0.829769	1.10121	0.634903	0	0
0.74	3.10473	1.22335	-1.3842	0.740489	0.195953	0.943447	0.172012	-0.0863987	-0.22171	0.698746	-0.143741	0	0	-0.508564	-0.0388829	-0.133181	0.179367	-0.184395	0	0	-0.309673	0.104807	0.104495	-0.0795565	-0.813602	0.0345896	1.57819	0.453956	0	0	0.673579	-0.538989	0.826758	1.10088	0.636207	0	0
0.75	3.1074	1.22964	-1.39031	0.740839	0.2059	0.941787	0.177033	-0.0878341	-0.233485	0.649717	-0.126655	0	0	-0.51498	-0.036553	-0.133671	0.178317	-0.178508	0	0	-0.303775	0.102872	0.106768	-0.0786298	-0.813152	0.0349409	1.57857	0.455107	0	0	0.670821	-0.538468	0.822541	1.10023	0.638211	0	0
0.76	3.10998	1.23614	-1.39611	0.741228	0.215959	0.940075	0.180131	-0.088584	-0.246598	0.597957	-0.11275	0	0	-0.521366	-0.0344045	-0.133195	0.1768	-0.173633	0	0	-0.297523	0.101051	0.10862	-0.0772653	-0.812705	0.0360581	1.57835	0.457665	0	0	0.667785	-0.538075	0.818378	1.09952	0.640451	0	0
0.77	3.11134	1.24351	-1.40078	0.74173	0.226164	0.938288	0.182445	-0.0876454	-0.259755	0.544836	-0.100747	0	0	-0.523599	-0.0329487	-0.134585	0.177739	-0.168665	0	0	-0.290121	0.0994701	0.110546	-0.0760994	-0.811615	0.0371851	1.57786	0.459947	0	0	0.664671	-0.537817	0.814812	1.09849	0.642675	0	0
0.78	3.11142	1.2513	-1.40399	0.742349	0.23646	0.936465	0.183529	-0.0846904	-0.270981	0.491055	-0.0896854	0	0	-0.523599	-0.0323281	-0.137136	0.18163	-0.162781	0	0	-0.281982	0.0982937	0.112358	-0.0750133	-0.809699	0.0381293	1.57722	0.46142	0	0	0.661643	-0.537462	0.811615	1.0968	0.644848	0	0
0.79	3.11082	1.25954	-1.40641	0.743143	0.2468	0.934555	0.183626	-0.0798289	-0.276236	0.437068	-0.0808692	0	0	-0.523599	-0.032578	-0.139631	0.188635	-0.155545	0	0	-0.273154	0.0971395	0.114156	-0.0733993	-0.807577	0.0398271	1.57577	0.464939	0	0	0.659112	-0.537064	0.809116	1.09444	0.647715	0	0
0.8	3.09664	1.25994	-1.38996	0.743573	0.25722	0.933837	0.171338	-0.068589	-0.291281	0.381497	-0.0773266	0	0	-0.523599	-0.0416556	-0.142231	0.196161	-0.15224	0	0	-0.271692	0.102892	0.112045	-0.0713856	-0.805871	0.0416285	1.57341	0.46954	0	0	0.657428	-0.535895	0.807486	1.09118	0.650064	0	0
0.81	3.08749	1.2609	-1.37888	0.744128	0.267667	0.932832	0.160464	-0.058668	-0.29885	0.333431	-0.0783881	0	0	-0.523599	-0.0492123	-0.145355	0.207094	-0.147823	0	0	-0.269855	0.106779	0.110011	-0.0691143	-0.803641	0.0432102	1.57153	0.47399	0	0	0.655706	-0.535384	0.805336	1.08867	0.65258	0	0
0.82	3.08197	1.26145	-1.37112	0.74469	0.278237	0.931754	0.151073	-0.0505202	-0.301618	0.299224	-0.0825952	0	0	-0.523599	-0.0560572	-0.148609	0.220448	-0.143193	0	0	-0.268515	0.109542	0.107638	-0.0673539	-0.800701	0.0438579	1.57024	0.476977	0	0	0.653594	-0.535084	0.802351	1.08689	0.654791	0	0
0.83	3.07963	1.26116	-1.3662	0.745192	0.288912	0.930637	0.143579	-0.0445475	-0.300358	0.282367	-0.0895676	0	0	-0.523599	-0.0623678	-0.151534	0.236387	-0.137918	0	0	-0.26803	0.111615	0.104841	-0.0655045	-0.798178	0.0446495	1.56912	0.480262	0	0	0.650897	-0.534823	0.798238	1.08589	0.656717	0	0
0.84	3.07976	1.26087	-1.36416	0.745653	0.299737	0.929459	0.141063	-0.0413955	-0.297306	0.288788	-0.0946509	0	0	-0.523599	-0.0677018	-0.153936	0.253458	-0.132513	0	0	-0.26774	0.113083	0.101967	-0.0635269	-0.795906	0.0455797	1.56834	0.484717	0	0	0.646766	-0.535113	0.792219	1.08662	0.659226	0	0
0.85	3.08135	1.26066	-1.36392	0.746163	0.310763	0.928278	0.142358	-0.0393575	-0.291625	0.314065	-0.0908257	0	0	-0.523599	-0.072563	-0.155941	0.270944	-0.129765	0	0	-0.267098	0.113886	0.100179	-0.0633839	-0.794229	0.0454945	1.56797	0.486864	0	0	0.643989	-0.53536	0.789156	1.08699	0.661272	0	0
0.86	3.08296	1.26064	-1.36311	0.746765	0.322099	0.927133	0.144021	-0.0366722	-0.283417	0.346184	-0.0854848	0	0	-0.523599	-0.078227	-0.157133	0.29078	-0.127626	0	0	-0.265529	0.114471	0.0979474	-0.0641039	-0.792366	0.0455397	1.56745	0.489014	0	0	0.641606	-0.536384	0.788082	1.08753	0.661896	0	0
